<svg width="500" height="500" viewBox="0 0 500 500" fill="none" xmlns="http://www.w3.org/2000/svg">
<path d="M211.54 105L305.907 230.776L399.867 105H432L321.363 251.535L428.746 394H396.613L305.907 272.294L214.794 394H182.254L289.637 251.535L179 105H211.54Z" fill="#007FFF" fill-opacity="0.81"/>
<path d="M237.412 105L331.405 230.776L424.994 105H457L346.801 251.535L453.759 394H421.752L331.405 272.294L240.653 394H208.241L315.199 251.535L205 105H237.412Z" fill="#007FFF" fill-opacity="0.4"/>
<path d="M173.54 105L267.907 230.776L361.867 105H394L283.363 251.535L390.746 394H358.613L267.907 272.294L176.794 394H144.254L251.637 251.535L141 105H173.54Z" fill="#04021D"/>
<path d="M173 130.237V394H144.61V130.237H42V105H173V130.237Z" fill="#04021D"/>
</svg>
